<svg xmlns="http://www.w3.org/2000/svg" viewBox="0 0 200 200" fill="none" stroke="#ffd43b" stroke-width="6" stroke-linecap="round" stroke-linejoin="round">
  <!-- body, flying left -->
  <path d="M44 92 Q70 78 104 86 Q132 90 150 84"/>
  <path d="M44 92 Q66 104 96 102"/>
  <!-- beak -->
  <path d="M44 92 l-12 -2 12 8" stroke-width="4"/>
  <!-- eye -->
  <circle cx="58" cy="90" r="2.2"/>
  <!-- swept-back wing -->
  <path d="M92 88 Q108 56 140 48 Q118 74 104 96"/>
  <!-- deeply forked tail -->
  <path d="M150 84 l20 -10 M150 88 l22 2 M152 86 l14 -3" stroke-width="5"/>
  <!-- coconut carried in talons -->
  <path d="M92 104 v10 M104 104 v9" stroke-width="4"/>
  <circle cx="98" cy="126" r="12"/>
  <path d="M92 121 l-3 -2 M104 121 l3 -2" stroke-width="3"/>
  <!-- speed lines trailing -->
  <path d="M168 100 h18 M160 114 h16 M176 88 h14" stroke-width="4"/>
</svg>
